<?xml version="1.0" encoding="utf-8"?>
<!-- Generator: Adobe Illustrator 17.1.0, SVG Export Plug-In . SVG Version: 6.00 Build 0)  -->
<!DOCTYPE svg PUBLIC "-//W3C//DTD SVG 1.1//EN" "http://www.w3.org/Graphics/SVG/1.1/DTD/svg11.dtd">
<svg version="1.1" id="Layer_5" xmlns="http://www.w3.org/2000/svg" xmlns:xlink="http://www.w3.org/1999/xlink" x="0px" y="0px"
	 viewBox="0 0 80 80" enable-background="new 0 0 80 80" xml:space="preserve">
<g>
	<path d="M24.3,34.5h14.9c0.2-0.6,0.4-1.2,0.7-1.8H24.3V34.5z"/>
	<path d="M24.3,40h14.1c0-0.1,0-0.1,0-0.2c0-0.5,0-1.1,0.1-1.6H24.3V40z"/>
	<path d="M62.5,57.4c-0.4,0-0.9,0-1.3-0.1v8.8c0,1.2-1.1,2.1-2.5,2.1H17.2c-1.4,0-2.5-0.9-2.5-2.1V21.7h7.2c2.8,0,5-2.1,5-4.7V8.6
		h31.8c1.4,0,2.5,0.9,2.5,2.1v11.5c0.4,0,0.9-0.1,1.3-0.1c0.4,0,0.8,0,1.2,0.1V10.7c0-2.6-2.3-4.7-5-4.7H24.4L12.1,19.1v47
		c0,2.6,2.3,4.7,5,4.7h41.5c2.8,0,5-2.1,5-4.7v-8.8C63.3,57.3,62.9,57.4,62.5,57.4z M24.4,8.6V17c0,1.2-1.1,2.1-2.5,2.1h-7.2
		L24.4,8.6z"/>
	<path d="M24.3,45.5h15c-0.2-0.6-0.4-1.2-0.5-1.8H24.3V45.5z"/>
	<path d="M24.3,28.9h17.8c0.5-0.6,1-1.2,1.6-1.8H24.3V28.9z"/>
	<path d="M24.3,51h18.1c-0.5-0.6-0.9-1.2-1.3-1.8H24.3V51z"/>
	<circle cx="20.3" cy="28" r="1.5"/>
	<circle cx="20.3" cy="33.5" r="1.5"/>
	<circle cx="20.3" cy="39.1" r="1.5"/>
	<circle cx="20.3" cy="44.6" r="1.5"/>
	<circle cx="20.3" cy="50.1" r="1.5"/>
	<path d="M58.2,23.8c-8.8,0-15.9,7.1-15.9,15.9c0,8.8,7.1,15.9,15.9,15.9c8.8,0,15.9-7.1,15.9-15.9C74.1,31,67,23.8,58.2,23.8z
		 M55.7,51.5l-8.1-10.1L56,44l14.4-13L55.7,51.5z"/>
</g>
</svg>
